{
  "accessors": [
    {
      "bufferView": 2,
      "componentType": 5126,
      "count": 1693,
      "max": [
        18.357147216796875,
        20.449539184570313,
        43.420921325683594
      ],
      "min": [
        -18.357147216796875,
        -18.313846588134766,
        -3.6508100032806396
      ],
      "type": "VEC3"
    },
    {
      "bufferView": 2,
      "byteOffset": 20316,
      "componentType": 5126,
      "count": 1693,
      "max": [
        1.0,
        1.0,
        1.0
      ],
      "min": [
        -1.0,
        -1.0,
        -1.0
      ],
      "type": "VEC3"
    },
    {
      "bufferView": 3,
      "componentType": 5126,
      "count": 1693,
      "max": [
        1.0,
        1.0,
        1.0,
        1.0
      ],
      "min": [
        -1.0,
        -1.0,
        -0.9997300505638123,
        -1.0
      ],
      "type": "VEC4"
    },
    {
      "bufferView": 1,
      "componentType": 5126,
      "count": 1693,
      "max": [
        0.9922940135002136,
        0.9883559942245483
      ],
      "min": [
        0.007058999966830015,
        0.007046999875456095
      ],
      "type": "VEC2"
    },
    {
      "bufferView": 0,
      "componentType": 5125,
      "count": 5436,
      "type": "SCALAR"
    },
    {
      "bufferView": 2,
      "byteOffset": 40632,
      "componentType": 5126,
      "count": 1459,
      "max": [
        16.20787811279297,
        9.7088623046875,
        46.20192337036133
      ],
      "min": [
        -16.207862854003906,
        -4.9159088134765625,
        -0.2556529939174652
      ],
      "type": "VEC3"
    },
    {
      "bufferView": 2,
      "byteOffset": 58140,
      "componentType": 5126,
      "count": 1459,
      "max": [
        1.0,
        1.0,
        1.0
      ],
      "min": [
        -1.0,
        -1.0,
        -1.0
      ],
      "type": "VEC3"
    },
    {
      "bufferView": 3,
      "byteOffset": 27088,
      "componentType": 5126,
      "count": 1459,
      "max": [
        1.0,
        1.0,
        1.0,
        1.0
      ],
      "min": [
        -1.0,
        -1.0,
        -1.0,
        -1.0
      ],
      "type": "VEC4"
    },
    {
      "bufferView": 1,
      "byteOffset": 13544,
      "componentType": 5126,
      "count": 1459,
      "max": [
        0.990218997001648,
        0.990539014339447
      ],
      "min": [
        0.007499000057578087,
        0.007499000057578087
      ],
      "type": "VEC2"
    },
    {
      "bufferView": 0,
      "byteOffset": 21744,
      "componentType": 5125,
      "count": 5844,
      "type": "SCALAR"
    },
    {
      "bufferView": 2,
      "byteOffset": 75648,
      "componentType": 5126,
      "count": 252,
      "max": [
        26.500001907348633,
        20.0,
        50.0
      ],
      "min": [
        -26.5,
        -21.943912506103516,
        -3.999999989900971e-06
      ],
      "type": "VEC3"
    },
    {
      "bufferView": 2,
      "byteOffset": 78672,
      "componentType": 5126,
      "count": 252,
      "max": [
        1.0,
        1.0,
        1.0
      ],
      "min": [
        -1.0,
        -1.0,
        -1.0
      ],
      "type": "VEC3"
    },
    {
      "bufferView": 3,
      "byteOffset": 50432,
      "componentType": 5126,
      "count": 252,
      "max": [
        1.0,
        1.0,
        1.0,
        1.0
      ],
      "min": [
        -1.0,
        -1.0,
        -1.0,
        -1.0
      ],
      "type": "VEC4"
    },
    {
      "bufferView": 1,
      "byteOffset": 25216,
      "componentType": 5126,
      "count": 252,
      "max": [
        0.9924899935722351,
        0.9552239775657654
      ],
      "min": [
        0.0075090001337230206,
        0.007505999878048897
      ],
      "type": "VEC2"
    },
    {
      "bufferView": 0,
      "byteOffset": 45120,
      "componentType": 5125,
      "count": 996,
      "type": "SCALAR"
    },
    {
      "bufferView": 2,
      "byteOffset": 81696,
      "componentType": 5126,
      "count": 2826,
      "max": [
        57.72966766357422,
        101.09243774414063,
        82.6201171875
      ],
      "min": [
        -57.2405891418457,
        -101.0924301147461,
        0.038391001522541046
      ],
      "type": "VEC3"
    },
    {
      "bufferView": 2,
      "byteOffset": 115608,
      "componentType": 5126,
      "count": 2826,
      "max": [
        1.0,
        1.0,
        1.0
      ],
      "min": [
        -1.0,
        -1.0,
        -1.0
      ],
      "type": "VEC3"
    },
    {
      "bufferView": 3,
      "byteOffset": 54464,
      "componentType": 5126,
      "count": 2826,
      "max": [
        1.0,
        1.0,
        1.0,
        1.0
      ],
      "min": [
        -1.0,
        -1.0,
        -1.0,
        -1.0
      ],
      "type": "VEC4"
    },
    {
      "bufferView": 1,
      "byteOffset": 27232,
      "componentType": 5126,
      "count": 2826,
      "max": [
        0.9924489855766296,
        0.9925050139427185
      ],
      "min": [
        0.007499999832361937,
        0.00749199977144599
      ],
      "type": "VEC2"
    },
    {
      "bufferView": 0,
      "byteOffset": 49104,
      "componentType": 5125,
      "count": 12084,
      "type": "SCALAR"
    }
  ],
  "asset": {
    "extras": {
      "author": "HamedPhixer (https://sketchfab.com/hamedphixer)",
      "license": "CC-BY-SA-4.0 (http://creativecommons.org/licenses/by-sa/4.0/)",
      "source": "https://sketchfab.com/3d-models/bed-bedside-table-aaecea3567824779b46ef59007772d80",
      "title": "Bed & Bedside Table"
    },
    "generator": "Sketchfab-13.83.0",
    "version": "2.0"
  },
  "bufferViews": [
    {
      "buffer": 0,
      "byteLength": 97440,
      "name": "floatBufferViews",
      "target": 34963
    },
    {
      "buffer": 0,
      "byteLength": 49840,
      "byteOffset": 97440,
      "byteStride": 8,
      "name": "floatBufferViews",
      "target": 34962
    },
    {
      "buffer": 0,
      "byteLength": 149520,
      "byteOffset": 147280,
      "byteStride": 12,
      "name": "floatBufferViews",
      "target": 34962
    },
    {
      "buffer": 0,
      "byteLength": 99680,
      "byteOffset": 296800,
      "byteStride": 16,
      "name": "floatBufferViews",
      "target": 34962
    }
  ],
  "buffers": [
    {
      "byteLength": 396480,
      "uri": "scene.bin"
    }
  ],
  "extensionsUsed": [
    "KHR_materials_transmission"
  ],
  "images": [
    {
      "uri": "textures/material_baseColor.png"
    },
    {
      "uri": "textures/material_metallicRoughness.png"
    },
    {
      "uri": "textures/material_normal.png"
    },
    {
      "uri": "textures/MiniTable_baseColor.png"
    },
    {
      "uri": "textures/MiniTable_metallicRoughness.png"
    },
    {
      "uri": "textures/MiniTable_normal.png"
    },
    {
      "uri": "textures/Clock_baseColor.png"
    },
    {
      "uri": "textures/Clock_metallicRoughness.png"
    },
    {
      "uri": "textures/Clock_normal.png"
    },
    {
      "uri": "textures/Clock_transmission.png"
    },
    {
      "uri": "textures/LampShade_baseColor.jpeg"
    },
    {
      "uri": "textures/LampShade_metallicRoughness.png"
    },
    {
      "uri": "textures/LampShade_emissive.jpeg"
    },
    {
      "uri": "textures/LampShade_normal.png"
    }
  ],
  "materials": [
    {
      "doubleSided": true,
      "name": "material",
      "normalTexture": {
        "index": 2
      },
      "occlusionTexture": {
        "index": 1
      },
      "pbrMetallicRoughness": {
        "baseColorTexture": {
          "index": 0
        },
        "metallicRoughnessTexture": {
          "index": 1
        }
      }
    },
    {
      "doubleSided": true,
      "name": "MiniTable",
      "normalTexture": {
        "index": 5
      },
      "occlusionTexture": {
        "index": 4
      },
      "pbrMetallicRoughness": {
        "baseColorTexture": {
          "index": 3
        },
        "metallicRoughnessTexture": {
          "index": 4
        }
      }
    },
    {
      "alphaMode": "BLEND",
      "doubleSided": true,
      "extensions": {
        "KHR_materials_transmission": {
          "transmissionFactor": 1.0,
          "transmissionTexture": {
            "index": 9
          }
        }
      },
      "name": "Clock",
      "normalTexture": {
        "index": 8
      },
      "occlusionTexture": {
        "index": 7
      },
      "pbrMetallicRoughness": {
        "baseColorTexture": {
          "index": 6
        },
        "metallicRoughnessTexture": {
          "index": 7
        }
      }
    },
    {
      "doubleSided": true,
      "emissiveFactor": [
        1.0,
        1.0,
        1.0
      ],
      "emissiveTexture": {
        "index": 12
      },
      "name": "LampShade",
      "normalTexture": {
        "index": 13
      },
      "occlusionTexture": {
        "index": 11
      },
      "pbrMetallicRoughness": {
        "baseColorTexture": {
          "index": 10
        },
        "metallicRoughnessTexture": {
          "index": 11
        }
      }
    }
  ],
  "meshes": [
    {
      "name": "defaultMaterial",
      "primitives": [
        {
          "attributes": {
            "NORMAL": 1,
            "POSITION": 0,
            "TANGENT": 2,
            "TEXCOORD_0": 3
          },
          "indices": 4,
          "material": 3,
          "mode": 4
        }
      ]
    },
    {
      "name": "defaultMaterial",
      "primitives": [
        {
          "attributes": {
            "NORMAL": 6,
            "POSITION": 5,
            "TANGENT": 7,
            "TEXCOORD_0": 8
          },
          "indices": 9,
          "material": 2,
          "mode": 4
        }
      ]
    },
    {
      "name": "defaultMaterial",
      "primitives": [
        {
          "attributes": {
            "NORMAL": 11,
            "POSITION": 10,
            "TANGENT": 12,
            "TEXCOORD_0": 13
          },
          "indices": 14,
          "material": 1,
          "mode": 4
        }
      ]
    },
    {
      "name": "defaultMaterial",
      "primitives": [
        {
          "attributes": {
            "NORMAL": 16,
            "POSITION": 15,
            "TANGENT": 17,
            "TEXCOORD_0": 18
          },
          "indices": 19,
          "material": 0,
          "mode": 4
        }
      ]
    }
  ],
  "nodes": [
    {
      "children": [
        1
      ],
      "matrix": [
        1.0,
        0.0,
        0.0,
        0.0,
        0.0,
        2.220446049250313e-16,
        -1.0,
        0.0,
        0.0,
        1.0,
        2.220446049250313e-16,
        0.0,
        0.0,
        0.0,
        0.0,
        1.0
      ],
      "name": "Sketchfab_model"
    },
    {
      "children": [
        2,
        4,
        6,
        8
      ],
      "matrix": [
        1.0,
        0.0,
        0.0,
        0.0,
        0.0,
        -4.371139006309477e-08,
        0.999999999999999,
        0.0,
        0.0,
        -0.999999999999999,
        -4.371139006309477e-08,
        0.0,
        0.0,
        0.0,
        0.0,
        1.0
      ],
      "name": "Collada visual scene group"
    },
    {
      "children": [
        3
      ],
      "matrix": [
        1.0,
        0.0,
        0.0,
        0.0,
        0.0,
        0.0,
        -1.0,
        0.0,
        0.0,
        1.0,
        0.0,
        0.0,
        -90.734848,
        49.918606,
        -76.513924,
        1.0
      ],
      "name": "LampShade"
    },
    {
      "mesh": 0,
      "name": "defaultMaterial"
    },
    {
      "children": [
        5
      ],
      "matrix": [
        0.434958,
        0.0,
        -0.191252,
        0.0,
        -0.188347,
        -0.082509,
        -0.42835,
        0.0,
        -0.033211,
        0.46793,
        -0.07553,
        0.0,
        -67.784248,
        50.11124,
        -81.322929,
        1.0
      ],
      "name": "Clock"
    },
    {
      "mesh": 1,
      "name": "defaultMaterial"
    },
    {
      "children": [
        7
      ],
      "matrix": [
        1.0,
        0.0,
        0.0,
        0.0,
        0.0,
        0.0,
        -1.0,
        0.0,
        0.0,
        1.0,
        0.0,
        0.0,
        -82.412643,
        0.0,
        -76.252411,
        1.0
      ],
      "name": "Mini_Table"
    },
    {
      "mesh": 2,
      "name": "defaultMaterial"
    },
    {
      "children": [
        9
      ],
      "matrix": [
        1.0,
        0.0,
        0.0,
        0.0,
        0.0,
        0.0,
        -1.0,
        0.0,
        0.0,
        1.0,
        0.0,
        0.0,
        0.0,
        0.0,
        0.0,
        1.0
      ],
      "name": "Bed"
    },
    {
      "mesh": 3,
      "name": "defaultMaterial"
    }
  ],
  "samplers": [
    {
      "magFilter": 9729,
      "minFilter": 9987,
      "wrapS": 10497,
      "wrapT": 10497
    }
  ],
  "scene": 0,
  "scenes": [
    {
      "name": "Sketchfab_Scene",
      "nodes": [
        0
      ]
    }
  ],
  "textures": [
    {
      "sampler": 0,
      "source": 0
    },
    {
      "sampler": 0,
      "source": 1
    },
    {
      "sampler": 0,
      "source": 2
    },
    {
      "sampler": 0,
      "source": 3
    },
    {
      "sampler": 0,
      "source": 4
    },
    {
      "sampler": 0,
      "source": 5
    },
    {
      "sampler": 0,
      "source": 6
    },
    {
      "sampler": 0,
      "source": 7
    },
    {
      "sampler": 0,
      "source": 8
    },
    {
      "sampler": 0,
      "source": 9
    },
    {
      "sampler": 0,
      "source": 10
    },
    {
      "sampler": 0,
      "source": 11
    },
    {
      "sampler": 0,
      "source": 12
    },
    {
      "sampler": 0,
      "source": 13
    }
  ]
}
